HIERARCHY
ROOT Hips
{
  OFFSET -5.22467 104.241 180.716
  CHANNELS 6 Xposition Yposition Zposition Zrotation Xrotation Yrotation
  JOINT RightUpLeg
  {
    OFFSET -8.9458 -8.66707 0.101652
    CHANNELS 3 Zrotation Xrotation Yrotation
    JOINT RightLeg
    {
      OFFSET 0 -44.4227 1.3727
      CHANNELS 3 Zrotation Xrotation Yrotation
      JOINT RightFoot
      {
        OFFSET 0.253549 -42.0924 -1.46059
        CHANNELS 3 Zrotation Xrotation Yrotation
        JOINT RightToes
        {
          OFFSET 0.04 -4.41509 8.4991
          CHANNELS 3 Zrotation Xrotation Yrotation
          End Site
          {
            OFFSET -0.08 -0.137448 9.77979
          }
        }
      }
    }
  }
  JOINT Spine
  {
    OFFSET 0 11.8905 0
    CHANNELS 3 Zrotation Xrotation Yrotation
    JOINT Spine1
    {
      OFFSET 0 25.6574 0.127663
      CHANNELS 3 Zrotation Xrotation Yrotation
      JOINT HEad
      {
        OFFSET 0 8.73416 0.011341
        CHANNELS 3 Zrotation Xrotation Yrotation
        End Site
        {
          OFFSET -0.29 12.7742 2.51395
        }
      }
      JOINT LeftShoulder1
      {
        OFFSET 8.99 -0.362252 -0.22
        CHANNELS 3 Zrotation Xrotation Yrotation
        JOINT LeftArm
        {
          OFFSET 10.2827 -0.00338 0.322123
          CHANNELS 3 Zrotation Xrotation Yrotation
          JOINT LeftForeArm
          {
            OFFSET 32.7669 0.099144 -1.42434
            CHANNELS 3 Zrotation Xrotation Yrotation
            JOINT LeftHand
            {
              OFFSET 27.5643 0.085362 1.02216
              CHANNELS 3 Zrotation Xrotation Yrotation
              End Site
              {
                OFFSET 16.7443 -0.6 1.50291
              }
            }
          }
        }
      }
      JOINT RightShoulder
      {
        OFFSET -8.99 -0.362252 -0.22
        CHANNELS 3 Zrotation Xrotation Yrotation
        JOINT RightArm
        {
          OFFSET -10.2827 -0.00338 0.322123
          CHANNELS 3 Zrotation Xrotation Yrotation
          JOINT RightForeArm
          {
            OFFSET -32.8971 0.099144 -1.42434
            CHANNELS 3 Zrotation Xrotation Yrotation
            JOINT RightHand
            {
              OFFSET -27.4921 0.085362 1.02216
              CHANNELS 3 Zrotation Xrotation Yrotation
              End Site
              {
                OFFSET -16.6312 -0.6 1.50291
              }
            }
          }
        }
      }
    }
  }
  JOINT LeftUpLeg
  {
    OFFSET 8.9458 -8.66707 0.101652
    CHANNELS 3 Zrotation Xrotation Yrotation
    JOINT LeftLeg
    {
      OFFSET 0 -44.4227 1.3727
      CHANNELS 3 Zrotation Xrotation Yrotation
      JOINT LeftFoot
      {
        OFFSET -0.253549 -42.0924 -1.46059
        CHANNELS 3 Zrotation Xrotation Yrotation
        JOINT LeftToes
        {
          OFFSET -0.04 -4.41509 8.4991
          CHANNELS 3 Zrotation Xrotation Yrotation
          End Site
          {
            OFFSET 0.08 -0.047448 9.77979
          }
        }
      }
    }
  }
}
MOTION
Frames:	21
Frame Time:	0.0166667
-7.4415 104.039 188.522 1.58832 0.0203246 -179.799 3.34202 -27.5656 -1.05121 -0.563282 25.6575 -13.1063 0.0265276 -6.81138 -0.199506 0.0462048 0.000533964 0.662642 -0.206409 3.22688 -0.195424 0.461955 -3.42968 -0.235505 2.80377 5.78717 -1.52915 2.55858e-016 4.96962e-017 -9.93923e-017 -86.7134 -16.8102 -15.5322 -25.6154 14.464 -13.1085 0.368473 9.90896 -0.00117926 0.902352 -0.01055 -3.61771 86.0153 -36.2418 6.50165 13.5504 12.8956 3.6152 -0.369625 9.91382 0.00119887 4.39046 2.90611 0.201468 -5.14019 23.7732 5.10669 -3.34628 -5.41183 -0.0293756 -1.88293e-011 -9.16954e-011 2.15292e-011 
-6.96745 103.985 186.901 1.90391 -0.00438873 -179.665 3.93886 -27.4869 -1.79635 -0.894132 27.5012 -11.7695 0.0692027 -8.3992 -0.199367 -0.979448 -0.109654 0.198679 -0.262904 3.26116 -0.138492 0.957664 -3.69961 -0.25701 2.75818 5.84718 -1.27554 -2.27224e-016 1.49089e-016 2.48481e-017 -86.8542 -17.1508 -15.0064 -25.5039 14.3934 -12.8178 0.368473 9.90896 -0.00117926 0.700491 -0.0036428 -3.54262 86.0557 -36.3359 6.51249 13.4473 12.8714 3.39813 -0.369625 9.91382 0.00119887 5.16677 2.64844 0.86402 -5.09634 25.7952 4.64748 -3.362 -4.63682 -0.00955477 0.341721 -0.587105 0.0371978 
-6.50245 103.966 185.295 2.23433 0.00651523 -179.48 4.5063 -27.2134 -2.46585 -1.20662 29.0606 -10.6727 0.141194 -9.90189 -0.197364 -1.87854 -0.26927 -0.208344 -0.204777 3.30605 -0.0954576 1.40702 -3.90626 -0.275354 2.70563 5.93814 -1.08679 3.95822e-016 0 -2.48481e-017 -86.9869 -17.5277 -14.5401 -25.3325 14.299 -12.4085 0.368473 9.90896 -0.00117926 0.544859 -0.0012664 -3.51774 86.0706 -36.3827 6.535 13.3799 12.8485 3.20005 -0.369625 9.91382 0.00119887 5.95314 2.26958 1.51151 -4.9483 27.9582 4.28513 -3.47198 -3.63495 0.0206887 1.24287 -0.567928 -0.461972 
-6.06058 104.065 183.722 2.60453 0.146441 -179.158 4.994 -26.3389 -3.00034 -1.2849 29.7676 -10.2591 0.28798 -11.1129 -0.191215 -2.34537 -0.647162 -0.42235 0.165025 3.36984 -0.08551 1.73008 -3.89141 -0.284885 2.64763 6.10902 -1.04704 -9.70628e-017 0 -0 -87.124 -18.0071 -14.2513 -24.9748 14.1304 -11.644 0.368473 9.90896 -0.00117926 0.525107 -0.0140631 -3.66123 86.0367 -36.314 6.62175 13.3814 12.8246 3.00656 -0.369625 9.91382 0.00119887 6.78753 1.66578 2.07209 -4.68159 30.4307 4.23913 -3.87808 -2.08549 0.0737778 3.19754 0.602951 -1.59214 
-5.63571 104.181 182.191 2.99451 0.277582 -178.747 5.4544 -25.3262 -3.26893 -1.12105 30.1817 -10.3604 0.491216 -12.3114 -0.179388 -2.78508 -0.934448 -0.623867 0.714281 3.47006 -0.106701 1.98254 -3.87668 -0.289806 2.55569 6.33738 -1.16367 5.74612e-017 0 -9.93923e-017 -87.223 -18.5381 -14.0312 -24.5623 13.9381 -10.7606 0.368473 9.90896 -0.00117926 0.55715 -0.028226 -3.81934 85.9211 -36.1455 6.66104 13.4955 12.8136 2.93664 -0.369625 9.91382 0.00119887 7.59619 0.665954 2.70235 -4.15112 33.2669 4.32198 -4.35767 -0.0432135 0.154134 7.35105 3.69883 -5.22554 
-5.22467 104.241 180.716 3.38615 0.268116 -178.257 5.87897 -24.5285 -3.11921 -0.686429 30.6937 -10.9344 0.787742 -13.7973 -0.155377 -3.59781 -0.750492 -0.992655 1.37744 3.64692 -0.171565 2.17139 -4.10532 -0.291687 2.36096 6.70245 -1.56146 -1.70831e-017 -9.93923e-017 -0 -87.2286 -19.1067 -13.7852 -24.1987 13.7506 -9.86436 0.368473 9.90896 -0.00117926 0.591234 -0.0312493 -3.85209 85.6398 -35.8731 6.4835 13.8111 12.8328 3.14969 -0.369625 9.91382 0.00119887 8.37602 -0.998193 3.66542 -3.19647 36.6196 4.46138 -4.74535 2.66559 0.277638 18.5646 8.72213 -14.6247 
-4.83269 104.246 179.296 3.81165 0.193693 -177.715 6.298 -23.8612 -2.59713 0.0420648 31.2249 -12.0058 1.05908 -15.302 -0.131666 -4.4806 -0.479493 -1.39465 2.15244 3.84059 -0.255902 2.36232 -4.35423 -0.292817 2.19391 6.94702 -1.97332 6.21202e-017 9.93923e-017 -1.98785e-016 -87.185 -19.6677 -13.5856 -23.8569 13.5944 -9.10468 0.368473 9.90896 -0.00117926 0.614613 -0.0299109 -3.83631 85.3303 -35.488 6.31983 14.2259 12.8698 3.51018 -0.369625 9.91382 0.00119887 9.05112 -3.13252 4.57866 -1.76128 40.3642 4.50502 -5.08597 5.67602 0.424688 31.7609 16.7733 -26.8436 
-4.46294 104.154 177.945 4.32763 0.0783624 -177.118 6.76735 -23.3862 -1.48967 1.26654 31.8294 -13.8773 1.15316 -16.612 -0.124145 -5.25637 -0.436892 -1.74826 3.08614 4.01859 -0.34944 2.63294 -4.48118 -0.295792 2.20722 6.80203 -2.10397 3.43214e-016 4.96962e-017 7.95139e-016 -87.1023 -20.1679 -13.4962 -23.5365 13.5157 -8.6897 0.368473 9.90896 -0.00117926 0.596332 -0.0279439 -3.81551 85.0962 -34.9788 6.31391 14.6769 12.9226 3.97214 -0.369625 9.91382 0.00119887 9.45144 -5.71118 5.22093 0.610257 44.5561 4.00345 -5.38052 8.71222 0.588296 45.3271 29.0267 -44.2779 
-4.11851 104.014 176.641 4.83955 -0.054787 -176.56 7.23668 -23.0021 -0.404917 2.51018 32.4561 -15.6887 1.2018 -17.8614 -0.117268 -5.97617 -0.448018 -2.07612 3.96454 4.13906 -0.422813 2.9544 -4.48676 -0.301219 2.22949 6.38556 -2.15836 -3.47873e-016 1.2424e-017 3.97569e-016 -87.0377 -20.615 -13.4496 -23.2771 13.494 -8.54549 0.368473 9.90896 -0.00117926 0.541098 -0.0219655 -3.74969 84.932 -34.3526 6.54391 15.136 12.9766 4.42638 -0.369625 9.91382 0.00119887 9.64401 -8.51194 5.37703 3.21435 48.8165 3.55192 -5.57489 11.6806 0.748104 60.8914 36.1777 -62.6187 
-3.80875 103.843 175.371 5.28455 -0.181618 -176.161 7.72089 -22.6907 0.0608932 3.24717 33.2027 -16.5179 1.30973 -19.1595 -0.0967172 -6.63539 -0.422494 -2.37588 4.57689 4.12854 -0.434507 3.36579 -4.30433 -0.312246 2.07228 5.67142 -2.26184 -1.86361e-016 0 3.97569e-016 -87.0691 -21.0042 -13.3779 -23.1325 13.5349 -8.74001 0.368473 9.90896 -0.00117926 0.446851 -0.00721103 -3.58445 84.8208 -33.5641 7.1623 15.5861 13.0149 4.72462 -0.369625 9.91382 0.00119887 9.52695 -11.3287 4.61016 5.2009 52.7774 3.94567 -5.59447 14.7715 0.896498 66.2585 44.6595 -71.2376 
-3.51804 103.697 174.116 5.61543 -0.281633 -175.833 8.14446 -22.3159 0.109277 3.61715 33.8754 -16.761 1.41088 -20.3674 -0.0734411 -7.21572 -0.423049 -2.64083 4.95859 4.0493 -0.410572 3.74112 -3.99334 -0.323847 1.94467 4.82237 -2.35941 1.61513e-016 3.97569e-016 3.97569e-016 -87.1365 -21.3209 -13.3435 -23.0473 13.5995 -9.05835 0.368473 9.90896 -0.00117926 0.302745 0.00845364 -3.40654 84.8558 -32.7517 8.06477 15.936 13.0455 4.93728 -0.369625 9.91382 0.00119887 9.10225 -14.1111 3.2829 6.42056 56.451 4.86047 -5.47069 16.858 0.980856 66.993 53.4044 -76.7394 
-3.2263 103.662 172.851 5.72935 -0.308327 -175.529 8.42226 -21.6778 -0.400837 3.45856 34.235 -16.3393 1.46565 -21.3239 -0.054686 -7.67637 -0.522038 -2.85538 5 3.92932 -0.354947 3.95373 -3.53821 -0.332611 2.03673 3.9476 -2.43104 -2.36057e-016 1.98785e-016 -0 -87.2353 -21.5412 -13.4496 -22.9713 13.6431 -9.26524 0.368473 9.90896 -0.00117926 0.0549989 0.0170682 -3.30194 85.2068 -32.0364 9.2419 16.0691 13.0775 5.13507 -0.369625 9.91382 0.00119887 8.4131 -16.7085 1.51822 6.40189 59.8288 6.22151 -5.14072 16.3022 0.900723 61.487 56.7614 -72.6187 
-2.95632 103.668 171.578 5.72953 -0.315714 -175.249 8.6029 -20.9299 -1.03696 3.17725 34.4512 -15.751 1.49601 -22.2063 -0.0382704 -8.08245 -0.600103 -3.04384 4.92695 3.79796 -0.292556 4.0443 -3.09735 -0.336878 2.2251 3.18135 -2.49696 3.97569e-016 1.98785e-016 -7.95139e-016 -87.28 -21.6868 -13.5075 -22.9445 13.6897 -9.48926 0.368473 9.90896 -0.00117926 -0.169118 0.023647 -3.21863 85.6715 -31.4165 10.5834 16.0434 13.0892 5.16897 -0.369625 9.91382 0.00119887 7.47753 -19.1656 -0.404365 5.63227 62.5977 7.83373 -4.78714 14.8282 0.775162 50.9795 57.5102 -61.9308 
-2.72831 103.669 170.292 5.68735 -0.358982 -174.96 8.66463 -20.1808 -1.31718 3.24049 34.6196 -15.6321 1.52761 -23.1863 -0.0209301 -8.36845 -0.477871 -3.16776 4.94658 3.70299 -0.254683 3.99324 -2.87748 -0.33282 2.5084 2.7414 -2.55611 3.72721e-016 7.95139e-016 1.59028e-015 -87.1411 -21.7394 -13.3009 -23.0155 13.7538 -9.81238 0.368473 9.90896 -0.00117926 -0.205947 0.0311347 -3.12802 86.0613 -30.9438 11.9879 15.8825 13.0485 4.82468 -0.369625 9.91382 0.00119887 6.41085 -21.5239 -2.13866 4.76637 64.4265 9.04589 -4.63291 13.7886 0.707595 41.8125 56.9379 -52.7057 
-2.52991 103.674 168.996 5.59965 -0.387804 -174.706 8.64811 -19.3778 -1.56298 3.36717 34.73 -15.5333 1.51056 -24.1189 -0.012976 -8.87965 -0.408023 -3.3998 5.00397 3.61723 -0.22608 3.85407 -2.71807 -0.323454 2.71124 2.48626 -2.65069 8.44835e-016 0 -1.59028e-015 -86.9382 -21.7966 -13.0137 -23.1065 13.8174 -10.1397 0.368473 9.90896 -0.00117926 -0.218611 0.0377897 -3.04584 86.5606 -30.5873 13.4476 15.5718 12.9936 4.3691 -0.369625 9.91382 0.00119887 5.25354 -23.6775 -3.67722 3.85906 65.4373 10.22 -4.48646 12.6608 0.64336 32.5473 54.3129 -42.9565 
-2.35644 103.67 167.694 5.476 -0.336524 -174.507 8.57618 -18.4821 -2.06092 3.37401 34.8389 -15.052 1.37352 -24.9105 -0.0290382 -10.2504 -0.64772 -4.0437 5.1173 3.52794 -0.205362 3.66434 -2.47008 -0.309704 2.57489 2.34823 -2.90164 -4.72114e-016 0 1.59028e-015 -86.7719 -21.962 -12.8086 -23.1237 13.8667 -10.392 0.368473 9.90896 -0.00117926 -0.337239 0.0415034 -2.99508 87.3427 -30.342 14.9423 15.0824 12.9557 4.01154 -0.369625 9.91382 0.00119887 4.08948 -25.5165 -4.86894 3.16432 65.6232 11.587 -4.22944 11.3459 0.559034 24.1155 48.8076 -33.2702 
-2.20501 103.675 166.381 5.34719 -0.306557 -174.396 8.52279 -17.5546 -2.41964 3.42058 34.8361 -14.6754 1.20361 -25.5783 -0.0540952 -11.5672 -1.00277 -4.66805 5.27475 3.43949 -0.182246 3.45248 -2.30577 -0.294056 2.34493 2.32369 -3.07234 -1.98785e-016 3.97569e-016 -7.95139e-016 -86.5684 -22.2011 -12.5323 -23.1671 13.9062 -10.6036 0.368473 9.90896 -0.00117926 -0.497131 0.0463193 -2.92539 88.2558 -30.1868 16.4101 14.4847 12.9264 3.7095 -0.369625 9.91382 0.00119887 3.02701 -27.1334 -5.72783 2.53029 64.996 13.072 -3.87396 9.92534 0.466595 17.1761 41.5727 -24.9928 
-2.07105 103.709 165.052 5.27232 -0.399083 -174.412 8.58101 -16.6397 -2.15043 3.70889 34.5586 -15.0134 1.08425 -26.0649 -0.0751668 -11.872 -1.38622 -4.83339 5.50715 3.35041 -0.146271 3.26422 -2.39739 -0.278945 2.24234 2.39829 -2.91282 7.20594e-016 3.97569e-016 -0 -86.2738 -22.5147 -12.0643 -23.3159 13.9288 -10.7513 0.368473 9.90896 -0.00117926 -0.654888 0.0553102 -2.80472 89.1974 -30.1323 17.7843 13.8128 12.9043 3.45469 -0.369625 9.91382 0.00119887 2.19781 -28.5997 -6.20402 1.89624 63.5427 14.8129 -3.33977 8.33864 0.362315 10.1601 33.3723 -16.9325 
-1.95486 103.743 163.715 5.1782 -0.548942 -174.564 8.62357 -15.7508 -1.85991 3.92693 34.2341 -15.297 0.958679 -26.5004 -0.0993515 -11.8896 -1.73707 -4.86686 5.70492 3.26554 -0.0966046 3.08582 -2.596 -0.265394 2.08144 2.53674 -2.58425 5.71506e-016 -3.97569e-016 -7.95139e-016 -85.92 -22.899 -11.4657 -23.5387 13.9556 -10.9286 0.368473 9.90896 -0.00117926 -0.876919 0.0692872 -2.60116 90.1819 -30.0928 19.056 13.1464 12.8994 3.35386 -0.369625 9.91382 0.00119887 1.56956 -29.8665 -6.34116 1.35849 61.3236 16.34 -2.78306 6.91186 0.268812 4.76604 25.2919 -10.4953 
-1.85781 103.74 162.38 5.00294 -0.739118 -174.891 8.59259 -14.9581 -2.1164 3.75891 34.1096 -14.7878 0.77133 -27.0376 -0.134408 -12.0955 -1.97406 -4.9796 5.7439 3.19415 -0.0219816 2.94078 -2.82725 -0.256737 1.67478 2.75422 -2.17728 1.01877e-015 0 1.59028e-015 -85.522 -23.3504 -10.7529 -23.8552 14.0097 -11.2492 0.368473 9.90896 -0.00117926 -1.2589 0.0923353 -2.23827 91.1987 -30.0064 20.1803 12.5638 12.9247 3.54555 -0.369625 9.91382 0.00119887 1.14087 -30.9093 -6.1132 0.768084 58.3759 17.351 -2.24536 6.04127 0.205717 0.38704 19.1241 -5.88354 
-1.77212 103.744 161.042 4.76707 -0.926701 -175.336 8.50141 -14.1415 -2.50864 3.46672 33.9598 -14.0291 0.60072 -27.5501 -0.165984 -12.2946 -2.06974 -5.07955 5.69854 3.12154 0.0567516 2.76244 -3.03957 -0.248504 1.24664 2.8848 -1.65348 -9.93923e-016 -1.98785e-016 -0 -85.0732 -23.8687 -9.93764 -24.1884 14.0765 -11.6303 0.368473 9.90896 -0.00117926 -1.67016 0.11772 -1.81764 92.1801 -29.8257 21.1796 12.102 12.9691 3.92633 -0.369625 9.91382 0.00119887 0.889708 -31.7066 -5.69895 0.17357 54.8114 18.1184 -1.97388 5.45601 0.175552 -3.155 15.371 -2.59011 
